/* XPM */
static char *_eb843c3a38d4151b7aa8abfed75098d[] = {
/* columns rows colors chars-per-pixel */
"64 64 138 2 ",
"   c black",
".  c #010000",
"X  c #010100",
"o  c #000001",
"O  c #010101",
"+  c #020100",
"@  c #030100",
"#  c #020101",
"$  c #030201",
"%  c #040100",
"&  c #040200",
"*  c #050200",
"=  c #040201",
"-  c #050301",
";  c #060301",
":  c #070401",
">  c #080401",
",  c #0B0602",
"<  c #0F0802",
"1  c #100902",
"2  c #120A02",
"3  c #140B02",
"4  c #180D02",
"5  c #1A0E03",
"6  c #1E1002",
"7  c #221203",
"8  c #271403",
"9  c #2B1501",
"0  c #2A1603",
"q  c #2F1903",
"w  c #321A02",
"e  c #351B03",
"r  c #371D03",
"t  c #391D02",
"y  c #381D03",
"u  c #3A1E02",
"i  c #3D1F03",
"p  c #3D2003",
"a  c #3F2103",
"s  c #402103",
"d  c #422203",
"f  c #442303",
"g  c #4D2703",
"h  c #4E2803",
"j  c #4F2803",
"k  c #502903",
"l  c #542B03",
"z  c #552C03",
"x  c #532A04",
"c  c #613103",
"v  c #623103",
"b  c #633203",
"n  c #643303",
"m  c #653403",
"M  c #623104",
"N  c #673304",
"B  c #6B3704",
"V  c #804003",
"C  c #814003",
"Z  c #864403",
"A  c #804104",
"S  c #884503",
"D  c #8E4703",
"F  c #8F4703",
"G  c #884604",
"H  c #8E4803",
"J  c #8E4904",
"K  c #964C03",
"L  c #9C4F04",
"P  c #A95403",
"I  c #A85503",
"U  c #AB5503",
"Y  c #AE5803",
"T  c #BA5B03",
"R  c #BB5F03",
"E  c #BC5D03",
"W  c #BE5D03",
"Q  c #C05F03",
"!  c #C16103",
"~  c #C26203",
"^  c #C76403",
"/  c #C96503",
"(  c #CB6603",
")  c #CD6803",
"_  c #D16603",
"`  c #D26602",
"'  c #D06903",
"]  c #DA6A02",
"[  c #DB6E03",
"{  c #DC6C03",
"}  c #DF7002",
"|  c #DF7003",
" . c #E07103",
".. c #E27102",
"X. c #E37202",
"o. c #E47202",
"O. c #EE7701",
"+. c #EC7702",
"@. c #F07802",
"#. c #F37A02",
"$. c #F67A01",
"%. c #F67B01",
"&. c #FA7800",
"*. c #FB7800",
"=. c #FA7900",
"-. c #FB7900",
";. c #FC7900",
":. c #FD7900",
">. c #FC7A00",
",. c #FD7A00",
"<. c #FC7B00",
"1. c #FE7A00",
"2. c #FF7A00",
"3. c #FE7B00",
"4. c #FF7B00",
"5. c #F87C01",
"6. c #F97C01",
"7. c #FB7D01",
"8. c #FF7C00",
"9. c #FE7D00",
"0. c #FF7D00",
"q. c #FD7E00",
"w. c #FF7E00",
"e. c #FE7F00",
"r. c #FF7F00",
"t. c #FF7F01",
"y. c #FE8000",
"u. c #FF8000",
"i. c #FE8100",
"p. c #FF8100",
"a. c #FF8001",
"s. c #FF8101",
"d. c #FF8200",
"f. c #FE8300",
"g. c #FF8300",
"h. c #FE8400",
"j. c #FF8400",
"k. c None",
/* pixels */
"k.k.k.k.k.k.k.k.k.k.k.k.k.k.k.k.k.k.k.k.k.k.k.k.k.k.4.4.4.4.4.4.4.4.4.4.4.4.k.k.k.k.k.k.k.k.k.k.k.k.k.k.k.k.k.k.k.k.k.k.k.k.k.k.",
"k.k.k.k.k.k.k.k.k.k.k.k.k.k.k.k.k.k.k.k.k.k.4.4.4.4.4.4.4.4.4.4.4.4.4.4.4.4.4.4.4.4.k.k.k.k.k.k.k.k.k.k.k.k.k.k.k.k.k.k.k.k.k.k.",
"k.k.k.k.k.k.k.k.k.k.k.k.k.k.k.k.k.k.k.k.4.4.4.4.4.4.4.4.4.4.4.4.4.4.4.4.4.4.4.4.4.4.4.4.k.k.k.k.k.k.k.k.k.k.k.k.k.k.k.k.k.k.k.k.",
"k.k.k.k.k.k.k.k.k.k.k.k.k.k.k.k.k.4.4.4.4.4.4.4.4.4.4.4.4.4.4.4.4.4.4.4.4.4.4.4.4.4.4.4.4.4.4.k.k.k.k.k.k.k.k.k.k.k.k.k.k.k.k.k.",
"k.k.k.k.k.k.k.k.k.k.k.k.k.k.k.k.4.4.4.4.4.4.4.4.4.4.4.4.4.4.4.4.4.4.4.4.4.4.4.4.4.4.4.4.4.4.4.4.k.k.k.k.k.k.k.k.k.k.k.k.k.k.k.k.",
"k.k.k.k.k.k.k.k.k.k.k.k.k.k.4.4.4.4.4.4.4.4.4.4.4.4.4.4.4.4.4.4.4.4.4.4.4.4.4.4.4.4.4.4.4.4.4.4.4.4.k.k.k.k.k.k.k.k.k.k.k.k.k.k.",
"k.k.k.k.k.k.k.k.k.k.k.k.k.4.4.4.4.4.4.4.4.4.4.4.4.4.4.4.4.4.4.4.4.4.4.4.4.4.4.4.4.4.4.4.4.4.4.4.4.4.4.k.k.k.k.k.k.k.k.k.k.k.k.k.",
"k.k.k.k.k.k.k.k.k.k.k.4.4.4.4.4.4.4.4.4.4.4.4.4.4.4.4.4.4.4.4.4.4.4.4.4.4.4.4.4.4.4.4.4.4.4.4.4.4.4.4.4.4.k.k.k.k.k.k.k.k.k.k.k.",
"k.k.k.k.k.k.k.k.k.k.4.4.4.4.4.4.4.4.4.4.4.4.4.4.4.4.4.4.4.4.4.4.4.4.4.4.4.4.4.4.4.4.4.4.4.4.4.4.4.4.4.4.4.4.k.k.k.k.k.k.k.k.k.k.",
"k.k.k.k.k.k.k.k.k.4.4.4.4.4.4.4.4.4.4.4.4.4.4.4.4.4.4.4.4.4.4.4.4.4.4.4.4.4.4.4.4.4.4.4.4.4.4.4.4.4.4.4.4.4.4.k.k.k.k.k.k.k.k.k.",
"k.k.k.k.k.k.k.k.4.4.4.4.4.4.4.4.4.4.4.4.4.4.4.4.4.4.4.4.4.4.4.4.4.4.4.4.4.4.4.4.4.4.4.4.4.4.4.4.4.4.4.4.4.4.4.4.k.k.k.k.k.k.k.k.",
"k.k.k.k.k.k.k.4.4.4.4.4.4.4.4.4.4.4.4.4.4.4.4.4.4.4.4.4.4.4.4.4.4.4.4.4.4.4.4.4.4.4.4.4.4.4.4.4.4.4.4.4.4.4.4.4.4.k.k.k.k.k.k.k.",
"k.k.k.k.k.k.k.4.4.4.4.4.4.4.4.4.4.4.4.4.4.4.4.4.4.4.4.4.4.4.4.4.4.4.4.4.4.4.4.4.4.4.4.4.4.4.4.4.4.4.4.4.4.4.4.4.4.k.k.k.k.k.k.k.",
"k.k.k.k.k.k.4.4.4.4.4.4.4.4.4.4.4.4.4.4.4.4.4.4.4.4.4.4.4.4.4.4.4.4.4.4.4.4.4.4.4.4.4.4.4.4.4.4.4.4.4.4.4.4.4.4.4.4.k.k.k.k.k.k.",
"k.k.k.k.k.4.4.4.4.4.4.4.4.4.4.4.4.4.4.4.4.4.4.4.4.4.4.4.4.4.4.4.4.4.4.4.4.4.4.4.4.4.4.4.4.4.4.4.4.4.4.4.4.4.4.4.4.4.4.k.k.k.k.k.",
"k.k.k.k.k.4.4.4.4.4.4.4.4.4.4.4.4.4.4.4.4.4.4.4.4.4.4.4.4.4.4.4.4.4.4.4.4.4.4.4.4.4.4.4.4.4.4.4.4.4.4.4.4.4.4.4.4.4.4.k.k.k.k.k.",
"k.k.k.k.4.4.4.4.4.4.4.4.4.4.4.4.4.4.4.4.4.4.4.4.4.4.4.4.&.&.4.&.4.&.&.4.4.4.4.4.4.4.4.4.4.4.4.4.4.4.4.4.4.4.4.4.4.4.4.4.k.k.k.k.",
"k.k.k.4.4.4.4.4.4.4.4.4.4.4.4.4.4.4.4.4.4.4.4.4.4.4.&.4.8.f.f.f.f.f.h.8.&.&.4.4.4.4.4.4.4.4.4.4.4.4.4.4.4.4.4.4.4.4.4.4.k.k.k.k.",
"k.k.k.4.4.4.4.4.4.4.4.4.4.4.4.4.4.4.4.4.4.4.4.4.4.&.f.8.' D v h g v J ` 8.f.4.4.4.*.4.4.4.4.4.4.4.4.4.4.4.4.4.4.4.4.4.4.4.k.k.k.",
"k.k.k.4.4.4.4.4.4.4.4.4.4.4.4.4.4.4.4.4.4.4.4.&.4.f.T u o o o o o o o o u W f.4.*.4.4.4.4.4.4.4.4.4.4.4.4.4.4.4.4.4.4.4.4.k.k.k.",
"k.k.4.4.4.4.4.4.4.4.4.4.4.4.4.4.4.4.4.4.*.4.4.4.%.M o o o - o - o - - o o o N 5.8.4.4.4.4.4.4.4.4.4.4.4.4.4.4.4.4.4.4.4.4.4.k.k.",
"k.k.4.4.4.4.4.4.4.4.4.4.4.4.4.4.4.4.4.4.4.*.8.+.t o - o o o o o o o o o o - o u O.8.*.4.&.4.4.4.4.4.4.4.4.4.4.4.4.4.4.4.4.4.k.k.",
"k.4.4.4.4.4.4.4.4.4.4.4.4.4.4.4.4.4.4.4.8.8.O.e o - o o o o o o o o o o o o - o t #.4.4.4.4.4.4.4.4.4.4.4.4.4.4.4.4.4.4.4.4.4.k.",
"k.4.4.4.4.4.4.4.4.4.4.4.4.4.4.4.4.4.&.4.4.8.g o - o o o o o o o o o o o o o o - o k 8.4.4.4.4.4.4.4.4.4.4.4.4.4.4.4.4.4.4.4.4.k.",
"k.4.4.4.4.4.4.4.4.4.4.4.4.4.4.4.4.4.4.&.h.C o - o o o o o o o o o o o o o o o o - o Z f.4.4.4.4.4.4.4.4.4.4.4.4.4.4.4.4.4.4.4.k.",
"k.4.4.4.4.4.4.4.4.4.4.4.4.4.4.4.4.4.&.8.~ o o o o o o o o o o o o o o o o o o o o o - ~ 8.&.4.4.4.4.4.4.4.4.4.4.4.4.4.4.4.4.4.k.",
"4.4.4.4.4.4.4.4.4.4.4.4.4.4.4.4.4.4.8.5.w o - o o o o o o o o o o o o o o o o o o - o t 5.4.4.4.4.4.4.4.4.4.4.4.4.4.4.4.4.4.4.4.",
"4.4.4.4.4.4.4.4.4.4.4.4.4.4.4.4.4.&.h.G o o o o o o o o o o o o o o o o o o o o o o o o J h.&.4.4.4.4.4.4.4.4.4.4.4.4.4.4.4.4.4.",
"4.4.4.4.4.4.4.4.4.4.4.4.4.4.4.4.4.4. .1 o o o o o o o o o o o o o o o o o o o o o o o o 4  .8.4.4.4.4.4.4.4.4.4.4.4.4.4.4.4.4.4.",
"4.4.4.4.4.4.4.4.4.4.4.4.4.4.4.8.&.f.m o o o o o o o o o o o o o o o o o o o o o o o o - o B h.&.4.4.4.4.4.4.4.4.4.4.4.4.4.4.4.4.",
"4.4.4.4.4.4.4.4.4.4.4.4.4.4.4.&.8.( o o o o o o o o o o o o o o o o o o o o o o o o o o o - ) 8.&.4.4.4.4.4.4.4.4.4.4.4.4.4.4.4.",
"4.4.4.4.4.4.4.4.4.4.4.4.4.4.4.&.f.k o - o o o o o o o o o o o o o o o o o o o o o o o o o o l f.4.&.4.4.4.4.4.4.4.4.4.4.4.4.4.4.",
"4.4.4.4.4.4.4.4.4.4.4.4.4.&.4.f.R o o o o o o o o o o o o o o o o o o o o o o o o o o o o o o ~ 8.4.4.4.4.4.4.4.4.4.4.4.4.4.4.4.",
"4.4.4.4.4.4.4.4.4.4.4.4.4.4.4.8.a o - o o o o o o o o o o o o o o o o o o o o o o o o o o o o f f.4.&.4.4.4.4.4.4.4.4.4.4.4.4.4.",
"4.4.4.4.4.4.4.4.4.4.4.4.4.&.f.P o o o o o o o o o o o o o o o o o o o o o o o o o o o o o o - o Y f.&.4.4.4.4.4.4.4.4.4.4.4.4.4.",
"4.4.4.4.4.4.4.4.4.4.4.4.4.4.%.0 o o o o o o o o o o o o o o o o o o o o o o o o o o o o o o o o q &.4.4.4.4.4.4.4.4.4.4.4.4.4.4.",
"4.4.4.4.4.4.4.4.4.4.&.4.&.h.S o - o o o o o o o o o o o o o o o o o o o o o o o o o o o o o o - o J f.4.4.4.4.4.4.4.4.4.4.4.4.4.",
"4.4.4.4.4.4.4.4.4.4.4.4.8.{ 1 o o o o o o o o o o o o o o o o o o o o o o o o o o o o o o o o o o 1 } 8.&.4.4.4.4.4.4.4.4.4.4.k.",
"k.4.4.4.4.4.4.4.4.4.4.&.f.j o - o o o o o o o o o o o o o o o o o o o o o o o o o o o o o o o o - o l f.&.4.4.4.4.4.4.4.4.4.4.k.",
"k.4.4.4.4.4.4.4.4.4.&.f.K o o o o o o o o o o o o o o o o o o o o o o o o o o o o o o o o o o o o o o L f.&.4.4.4.4.4.4.4.4.4.k.",
"k.4.4.4.4.4.4.&.4.&.8./ , o o o o o o o o o o o o o o o o o o o o o o o o o o o o o o o o o o o o o o , ) f.&.4.4.4.4.4.4.4.4.k.",
"k.k.4.4.4.4.4.4.&.f. .6 o o o o o o o o o o o o o o o o o o o o o o o o o o o o o o o o o o o o o o o o 7 o.8.*.4.4.4.8.4.4.k.k.",
"k.k.4.4.4.4.&.&.f.{ 8 o o o o o o o o o o o o o o o o o o o o o o o o o o o o o o o o o o o o o o o o - o 9  .f.&.&.4.4.4.4.k.k.",
"k.k.4.4.&.4.8.f.R 5 o - o o o o o o o o o o o o o o o o o o o o o o o o o o o o o o o o o o o o o o o o o o 5 Q f.8.&.&.&.4.k.k.",
"k.k.k.f.f.f.] v o - o o o o o o o o o o o o o o o o o o o o o o o o o o o o o o o o o o o o o o o o o o o o o o b { f.h.f.k.k.k.",
"k.k.k.P B g - o o o o o o o o o o o o o o o o o o o o o o o o o o o o o o o o o o o o o o o o o o o o o o o o - o > d C U k.k.k.",
"k.k.k.o o o o - o o o o o o o o o o o o o o o o o o o o o o o o o o o o o o o o o o o o o o o o o o o o o o o o - o o o k.k.k.k.",
"k.k.k.k.- o o o o o o o o o o o o o o o o o o o o o o o o o o o o o o o o o o o o o o o o o o o o o o o o o o o o o o - k.k.k.k.",
"k.k.k.k.k.o o o o o o o o o o o o o o o o o o o o o o o o o o o o o o o o o o o o o o o o o o o o o o o o o o o o o o k.k.k.k.k.",
"k.k.k.k.k.o o o o o o o o o o o o o o o o o o o o o o o o o o o o o o o o o o o o o o o o o o o o o o o o o o o o o o k.k.k.k.k.",
"k.k.k.k.k.k.o o o o o o o o o o o o o o o o o o o o o o o o o o o o o o o o o o o o o o o o o o o o o o o o o o o o k.k.k.k.k.k.",
"k.k.k.k.k.k.k.o o o o o o o o o o o o o o o o o o o o o o o o o o o o o o o o o o o o o o o o o o o o o o o o o o k.k.k.k.k.k.k.",
"k.k.k.k.k.k.k.o o o o o o o o o o o o o o o o o o o o o o o o o o o o o o o o o o o o o o o o o o o o o o o o o k.k.k.k.k.k.k.k.",
"k.k.k.k.k.k.k.k.o o o o o o o o o o o o o o o o o o o o o o o o o o o o o o o o o o o o o o o o o o o o o o o o k.k.k.k.k.k.k.k.",
"k.k.k.k.k.k.k.k.k.o o o o o o o o o o o o o o o o o o o o o o o o o o o o o o o o o o o o o o o o o o o o o o k.k.k.k.k.k.k.k.k.",
"k.k.k.k.k.k.k.k.k.k.o o o o o o o o o o o o o o o o o o o o o o o o o o o o o o o o o o o o o o o o o o o o k.k.k.k.k.k.k.k.k.k.",
"k.k.k.k.k.k.k.k.k.k.k.o o o o o o o o o o o o o o o o o o o o o o o o o o o o o o o o o o o o o o o o o k.k.k.k.k.k.k.k.k.k.k.k.",
"k.k.k.k.k.k.k.k.k.k.k.k.k.o o o o o o o o o o o o o o o o o o o o o o o o o o o o o o o o o o o o o o k.k.k.k.k.k.k.k.k.k.k.k.k.",
"k.k.k.k.k.k.k.k.k.k.k.k.k.k.o o o o o o o o o o o o o o o o o o o o o o o o o o o o o o o o o o o o k.k.k.k.k.k.k.k.k.k.k.k.k.k.",
"k.k.k.k.k.k.k.k.k.k.k.k.k.k.k.k.o o o o o o o o o o o o o o o o o o o o o o o o o o o o o o o o k.k.k.k.k.k.k.k.k.k.k.k.k.k.k.k.",
"k.k.k.k.k.k.k.k.k.k.k.k.k.k.k.k.k.k.o o o o o o o o o o o o o o o o o o o o o o o o o o o o k.k.k.k.k.k.k.k.k.k.k.k.k.k.k.k.k.k.",
"k.k.k.k.k.k.k.k.k.k.k.k.k.k.k.k.k.k.k.k.o o o o o o o o o o o o o o o o o o o o o o o o k.k.k.k.k.k.k.k.k.k.k.k.k.k.k.k.k.k.k.k.",
"k.k.k.k.k.k.k.k.k.k.k.k.k.k.k.k.k.k.k.k.k.k.k.o o o o o o o o o o o o o o o o o o k.k.k.k.k.k.k.k.k.k.k.k.k.k.k.k.k.k.k.k.k.k.k.",
"k.k.k.k.k.k.k.k.k.k.k.k.k.k.k.k.k.k.k.k.k.k.k.k.k.k.k.o o o o o o o o o o k.k.k.k.k.k.k.k.k.k.k.k.k.k.k.k.k.k.k.k.k.k.k.k.k.k.k."
};
