/* XPM */
static char *_3a3d0eab986451ee5463942dbbe166c[] = {
/* columns rows colors chars-per-pixel */
"32 32 73 1 ",
"  c black",
". c #010000",
"X c #020100",
"o c #030100",
"O c #040200",
"+ c #050200",
"@ c #070401",
"# c #080400",
"$ c #0D0601",
"% c #0F0701",
"& c #2B1501",
"* c #2E1701",
"= c #2F1801",
"- c #442201",
"; c #472401",
": c #4F2701",
"> c #502801",
", c #562B01",
"< c #572B01",
"1 c #582C01",
"2 c #5B2E01",
"3 c #5F2F02",
"4 c #623001",
"5 c #653202",
"6 c #683302",
"7 c #783C01",
"8 c #7B3D01",
"9 c #914801",
"0 c #944A01",
"q c #A95202",
"w c #AC5301",
"e c #AD5601",
"r c #AD5701",
"t c #B05701",
"y c #B25701",
"u c #B35701",
"i c #B05801",
"p c #BB5B01",
"a c #BC5C01",
"s c #C06001",
"d c #C36101",
"f c #D96901",
"g c #DA6901",
"h c #DA6C01",
"j c #DC6D01",
"k c #F67B01",
"l c #F77B01",
"z c #F97800",
"x c #FB7800",
"c c #FB7900",
"v c #FC7900",
"b c #FD7900",
"n c #FD7A00",
"m c #FC7B00",
"M c #FD7B00",
"N c #FE7A00",
"B c #FE7B00",
"V c #FF7B00",
"C c #FE7D00",
"Z c #FF7D00",
"A c #FC7E00",
"S c #FD7E00",
"D c #FF7E00",
"F c #FF8000",
"G c #FF8100",
"H c #FD8200",
"J c #FE8200",
"K c #FF8200",
"L c #FF8300",
"P c #FF8400",
"I c #FF8500",
"U c #FF8600",
"Y c None",
/* pixels */
"YYYYYYYYYYYYVVVVVVVVYYYYYYYYYYYY",
"YYYYYYYYYVVVVVVVVVVVVVVYYYYYYYYY",
"YYYYYYYVVVVVVVVVVVVVVVVVVYYYYYYY",
"YYYYYYVVVVVVVVVVVVVVVVVVVVYYYYYY",
"YYYYYVVVVVVVMMMMVVVVVVVVVVVYYYYY",
"YYYYVVVVVVVVMMMMVVVVVVVVVVVVYYYY",
"YYYVVVVVVVVVMMMMVVVVVVVVVVVVVYYY",
"YYVVVVVVVVVVVVxMVxxVVxVVVVVVVVYY",
"YYVVMMMMMVVVVFFMMPFVVVVVVVVVVVYY",
"YVVVMMMMVVVxFp1**1pFxVVVVVVVVVVY",
"YVVVMMMMMVVA5      6AVVMVVVVVVVY",
"YVVVMMMxVxF3 ++  +  4FxVVVVVVVVY",
"VVVVVVVVxF9 @      @ 0PVVVVVVVVV",
"VVVVVVVVFh%          %jMxVVVVVVV",
"VVVVVVVxF1            2PxMVVVVVV",
"VVVVVVxFs              dMVVVVVVV",
"MMMMxVVF-              ;FVVVVVVV",
"MMMVMxFe +              iFVMVVVV",
"MMMMMMk&              + *lMMMMVV",
"VVMMxP8 +                8PxVMxV",
"YVxxPi                    tPxxMY",
"YMFPq#                    #ePFMY",
"Yhu:                        >uhY",
"YY                            YY",
"YY+                         ++YY",
"YYY                          YYY",
"YYYY                        YYYY",
"YYYYY                      YYYYY",
"YYYYYY                    YYYYYY",
"YYYYYYY                  YYYYYYY",
"YYYYYYYYY              YYYYYYYYY",
"YYYYYYYYYYYY        YYYYYYYYYYYY"
};
