/* XPM */
static char *_9564e561fd546f7f619c553fc4cfd53[] = {
/* columns rows colors chars-per-pixel */
"16 16 44 1 ",
"  c black",
". c #010000",
"X c #020000",
"o c #030100",
"O c #050200",
"+ c #150A00",
"@ c #160A00",
"# c #1A0C00",
"$ c #2E1600",
"% c #2F1700",
"& c #462200",
"* c #472200",
"= c #673200",
"- c #683301",
"; c #864300",
": c #884301",
"> c #944701",
", c #954800",
"< c #9C4B00",
"1 c #9D4C00",
"2 c #D26800",
"3 c #D36900",
"4 c #E57200",
"5 c #E67300",
"6 c #EA7300",
"7 c #EA7400",
"8 c #F67900",
"9 c #F67A00",
"0 c #FB7800",
"q c #FA7900",
"w c #FB7900",
"e c #FB7B00",
"r c #FC7900",
"t c #FD7900",
"y c #FD7A00",
"u c #FE7A00",
"i c #FF7B00",
"p c #FD7C00",
"a c #FF7C00",
"s c #FF7D00",
"d c #FF7F00",
"f c #FF8300",
"g c #FF8600",
"h c None",
/* pixels */
"hhhhhiiiiiihhhhh",
"hhhiiiiiiiiiihhh",
"hhiiiiiwwwsiiihh",
"hiiiiwsffiiiiiih",
"hiii0s6<17siiiih",
"iii0s2#  #2siiii",
"iiii9$ OO $9iiii",
"ii0f; O  O ;f0ii",
"iis5@      @5sii",
"iwg- O    O -gwi",
"wf>          ,fw",
"h&            &h",
"h              h",
"hh            hh",
"hhh          hhh",
"hhhhh      hhhhh"
};
